<?xml version="1.0" standalone="yes"?>
<svg xmlns="http://www.w3.org/2000/svg" width="525" height="99">
<path style="fill:#000000; stroke:none;" d="M0 0L0 99L525 99L525 0L0 0z"/>
<path style="fill:#2b7ca0; stroke:none;" d="M39 4.42824C30.2021 5.68806 21.8573 8.13395 15.1705 14.3256C-0.814172 29.1267 -3.8219 59.846 8.10802 78C16.8385 91.2853 32.4232 97.6278 48 95.7137C57.2319 94.5793 65.9992 91.4005 72.6998 84.6998C100.23 57.1699 81.8454 -1.70709 39 4.42824z"/>
<path style="fill:#0000ff; stroke:none;" d="M101 6L101 94C103.701 87.5639 102 77.951 102 71L102 27C102 20.5798 103.497 11.951 101 6z"/>
<path style="fill:#2b7ca0; stroke:none;" d="M102 6L102 94L113 94L113 22C123.529 39.1997 134.518 56.1927 145.667 73C149.475 78.7399 153.634 89.2387 159.518 92.9722C162.952 95.1518 169.088 94 173 94L173 6L162 6L162 78C151.096 61.5218 140.641 44.6849 130.053 28C126.264 22.0284 121.835 10.7256 115.674 7.02778C112.099 4.88144 106.025 6 102 6M194 6L194 51C194 61.2552 193.795 72.7396 198.905 82C210.52 103.05 246.967 99.9333 256.676 79C260.764 70.1866 260 60.4492 260 51L260 6L249 6L249 54C249 62.5645 249.369 71.9089 243.468 78.8951C234.018 90.0813 214.609 86.7528 208.403 73.9961C204.674 66.3311 205 56.3249 205 48L205 6L194 6z"/>
<path style="fill:#0000ff; stroke:none;" d="M271 6L272 7L271 6z"/>
<path style="fill:#2b7ca0; stroke:none;" d="M272 6C272.74 14.4851 276.196 22.8559 278.576 31C282.666 44.9995 286.84 58.9806 290.859 73C292.295 78.0114 293.695 83.0293 295.284 87.9954C296.035 90.3424 296.594 92.8795 299.228 93.6821C302.364 94.6379 308.451 94.7141 310.431 91.6821C314.008 86.2072 314.909 77.2644 316.709 71C320.927 56.3204 327.673 40.2137 329 25C333.525 38.3402 336.645 52.4075 340.424 66C342.985 75.2107 346.608 84.5382 348 94L362 94C366.175 73.8271 373.018 53.8041 378.709 34C381.349 24.8129 384.722 15.4916 386 6L374 6C370.95 20.7357 366.606 35.4957 362.576 50C360.145 58.745 356.74 67.9396 356 77C352.351 70.7016 350.967 63.0069 349.116 56C346.556 46.3088 343.772 36.675 341.151 27C339.694 21.6197 338.911 11.7859 335.066 7.60339C332.662 4.98952 327.199 6 324 6C320.347 30.8311 307.357 54.0902 304 79C299.812 66.6519 297.074 53.5833 293.576 41C290.349 29.3931 286.442 17.798 284 6L272 6M384 94C387.413 94 393.344 95.137 395.925 92.3966C401.913 86.0392 398.977 70.5032 410.004 70.0193C416.975 69.7134 424.022 69.9969 431 70C434.032 70.0014 438.029 69.4249 440.49 71.6034C446.243 76.6949 444.314 88.4471 450.649 92.9722C453.455 94.9763 458.729 94 462 94C460.584 85.7786 456.385 77.7832 453.424 70C447.967 55.6544 442.327 41.3757 436.95 27C435.027 21.858 431.967 7.20316 425.892 6.14815C414.159 4.11061 412.979 16.4796 409.601 25C403.552 40.2573 397.683 55.6213 391.95 71C389.167 78.4639 385.183 86.1011 384 94M455 6C461.299 19.4913 468.579 32.6644 475.247 46C477.973 51.4521 481.693 57.1179 483.363 63C485.991 72.2596 484 84.4037 484 94L495 94C495 84.1084 492.929 71.5423 495.637 62C497.709 54.7018 502.483 47.5942 506.139 41C512.396 29.7128 519.043 17.9066 524 6C520.547 6 515.432 5.08765 512.39 7.02778C509.032 9.17037 507.46 14.6573 505.576 18C499.965 27.9538 493.17 38.9977 490 50C484.778 40.2048 480.219 29.945 475.247 20C473.316 16.1379 471.393 9.4414 467.61 7.02778C464.365 4.95834 458.692 6 455 6z"/>
<path style="fill:#0000ff; stroke:none;" d="M336 10L337 11L336 10z"/>
<path style="fill:#000000; stroke:none;" d="M36 15.5293C7.79527 22.0038 4.98468 69.2913 29 82.4421C35.9157 86.2291 44.5374 86.3812 52 84.4853C75.3007 78.5658 79.7036 42.1348 66.4676 25.0039C59.4802 15.9603 46.9189 13.0229 36 15.5293M422 20C418.837 33.6672 412.346 46.6656 408 60L437 60C435.025 51.4672 431.353 43.2077 428.319 35C426.489 30.0513 425.164 24.2295 422 20z"/>
<path style="fill:#0000ff; stroke:none;" d="M21 24L22 25L21 24M129 27L130 28L129 27M129 47L130 48L129 47M13 57L14 58L13 57M84 59L85 60L84 59M140 64L141 65L140 64M194 65L195 66L194 65M255 81L256 82L255 81M215 94L216 95L215 94z"/>
</svg>
