<?xml version="1.0" encoding="utf-8"?>
<svg width="576px" height="167px" viewBox="0 0 576 167" version="1.1" xmlns="http://www.w3.org/2000/svg">
  <g id="Page-1" stroke="none" stroke-width="1" fill="none" fill-rule="evenodd" transform="matrix(1, 0, 0, -1, 0.000016, 163.227829)">
    <g id="logo-coral">
      <g id="Page-1">
        <path d="M 529.907 140.222 L 546.404 140.222 L 574.948 67.887 L 558.618 67.887 L 546.82 103.914 L 534.39 67.887 L 516.164 67.887 L 537.867 120.137 L 529.907 140.222 Z M 448.024 85.059 L 448.024 122.137 L 431.38 122.137 L 431.38 67.887 L 443.075 67.887 L 446.551 72.626 C 451.08 68.835 455.925 66.622 461.509 66.622 C 468.989 66.622 474.676 68.835 478.153 74.315 C 483.209 69.677 488.582 66.622 495.431 66.622 C 508.281 66.622 515.762 73.26 515.762 91.273 L 515.762 122.137 L 499.118 122.137 L 499.118 93.17 C 499.118 84.848 495.745 82.424 490.372 82.424 C 487.213 82.424 484.581 83.266 481.629 85.162 C 481.842 87.059 481.946 89.06 481.946 91.273 L 481.946 122.137 L 465.302 122.137 L 465.302 93.17 C 465.302 84.848 461.93 82.424 456.453 82.424 C 453.397 82.424 450.869 83.162 448.024 85.059 L 448.024 85.059 Z M 389.975 89.694 L 411.361 89.694 C 410.202 82.637 406.409 79.265 400.721 79.265 C 395.873 79.265 391.241 82.11 389.975 89.694 L 389.975 89.694 Z M 401.88 123.192 C 385.868 123.192 373.014 115.291 373.014 94.433 C 373.014 74.944 385.447 66.518 399.773 66.518 C 417.048 66.518 424.739 78.631 424.739 97.699 L 389.869 97.699 C 391.03 107.073 396.824 109.814 404.515 109.814 C 411.952 109.814 417.77 107.979 422.272 104.95 L 420.013 118.152 C 415.717 121.471 410.559 123.192 401.88 123.192 L 401.88 123.192 Z M 339.905 109.183 C 343.696 109.183 346.541 108.549 349.49 106.338 L 349.49 82.741 C 346.858 81.159 344.226 80.423 340.432 80.423 C 332.321 80.423 327.686 85.9 327.686 95.064 C 327.686 104.02 332.427 109.183 339.905 109.183 L 339.905 109.183 Z M 352.755 118.136 C 348.437 121.402 343.488 123.403 336.428 123.403 C 321.575 123.403 310.831 114.239 310.831 95.381 C 310.831 76.63 323.157 66.518 338.956 66.518 C 342.643 66.518 346.226 67.045 349.49 68.308 L 349.49 45.281 L 366.136 45.281 L 366.136 122.137 L 355.6 122.137 L 352.755 118.136 Z M 240.307 90.008 L 240.307 49.802 L 257.583 49.802 L 257.583 89.694 C 257.583 104.02 264.008 106.969 272.857 106.969 C 282.445 106.969 287.394 102.755 287.394 89.694 L 287.394 49.802 L 304.776 49.802 L 304.776 90.008 C 304.776 113.711 294.454 123.613 272.016 123.613 C 251.157 123.613 240.307 115.081 240.307 90.008 L 240.307 90.008 Z" id="Fill-1" transform="matrix(-1, 0, 0, -1, 815.255005, 185.502998)" style="fill: rgb(166, 162, 214);"/>
        <path d="M196.279009,93.0220354 C195.578406,92.4599542 194.789894,92.0816816 193.932121,91.9191842 C188.865399,96.969923 182.682506,102.289715 177.192225,105.864658 C174.658864,107.548237 171.472849,108.390027 169.363047,108.390027 C164.506772,108.390027 162.39697,103.760183 161.762964,96.3998502 C160.91851,86.5141478 160.348437,74.6731488 160.348437,56.3722123 C160.348437,37.6024308 156.088874,24.8423892 144.740695,23.8407659 C144.261195,23.7981436 143.776366,23.7688408 143.270227,23.7688408 C136.30415,23.7688408 132.926335,27.3437836 128.493619,36.39036 C124.694909,44.1715879 118.783734,55.5304225 107.808499,76.9854069 C98.3090614,95.4967908 87.7547222,111.9037 78.676179,123.262535 C76.1481457,126.411255 74.1502268,128.574335 72.2721831,129.805053 C71.0174901,130.63086 69.813411,131.043763 68.5453985,131.043763 C64.9624641,131.043763 62.3465224,128.020246 61.4727659,120.97958 C61.2649823,119.306656 61.1557627,117.407301 61.1557627,115.268196 C61.1557627,100.755313 66.6460437,77.1958543 76.1428179,42.4880083 C83.1088949,17.2476337 80.1546389,0.00159833507 64.9544724,0.00159833507 C64.9304974,0.00159833507 64.9065224,0.00159833507 64.8825473,0.00159833507 C64.8505806,0.00159833507 64.8186139,0.00159833507 64.7839834,0.00159833507 L64.7733278,0.00426222685 C61.3315796,0.0442206035 58.4785515,1.29092196 55.7294152,3.45400208 C53.0229011,5.5851155 50.3137232,10.1883205 47.7856899,16.3765411 C44.9353257,23.3479459 27.6040458,58.1117336 0.01944641,76.021078 C-0.305548387,82.8299854 3.54910302,89.6362289 11.3596337,90.374127 C18.4695609,91.0480916 23.5176358,88.0512133 30.0175317,83.6850947 C29.5300395,85.8561665 29.0798418,87.886052 28.6696025,89.7427846 C28.1847742,91.9351675 27.771871,93.8265307 27.4415484,95.3529407 C26.9460645,97.6252404 26.6317253,99.087717 26.5384891,99.4926285 C25.6354298,103.63498 24.990768,107.569548 24.5725369,111.304325 C20.6832549,146.070776 36.7971363,163.226239 55.6681457,163.226239 C58.8221935,163.226239 61.9469386,162.850631 65.0503725,162.062119 C85.8420479,156.790277 105.858531,132.940454 129.551184,78.0376441 C129.191559,84.0100895 129.154264,89.5882789 129.412662,94.7642206 C130.973702,126.23011 143.419405,135.670943 161.003754,135.670943 C174.301902,135.670943 186.755596,128.731505 193.087667,120.105823 C197.733494,114.005511 199.632849,107.273856 199.632849,102.015334 C199.632849,97.9342518 198.338198,94.6763122 196.279009,93.0220354" id="Fill-4" style="fill: rgb(61, 64, 218);"/>
      </g>
    </g>
  </g>
</svg>