<?xml version="1.0" encoding="utf-8"?>
<svg width="576px" height="167px" viewBox="0 0 576 167" version="1.1" xmlns="http://www.w3.org/2000/svg">
  <g id="logo" stroke="none" stroke-width="1" fill="none" fill-rule="evenodd" transform="matrix(1, 0, 0, -1, 0.000016, 163.227829)">
    <g id="logo-coral">
      <g id="Page-1">
        <path d="M 499.626 127.198 L 516.123 127.198 L 544.667 54.863 L 528.337 54.863 L 516.539 90.89 L 504.109 54.863 L 485.883 54.863 L 507.586 107.113 L 499.626 127.198 Z M 417.743 72.035 L 417.743 109.113 L 401.099 109.113 L 401.099 54.863 L 412.794 54.863 L 416.27 59.602 C 420.799 55.811 425.644 53.598 431.228 53.598 C 438.708 53.598 444.395 55.811 447.872 61.291 C 452.928 56.653 458.301 53.598 465.15 53.598 C 478 53.598 485.481 60.236 485.481 78.249 L 485.481 109.113 L 468.837 109.113 L 468.837 80.146 C 468.837 71.824 465.464 69.4 460.091 69.4 C 456.932 69.4 454.3 70.242 451.348 72.138 C 451.561 74.035 451.665 76.036 451.665 78.249 L 451.665 109.113 L 435.021 109.113 L 435.021 80.146 C 435.021 71.824 431.649 69.4 426.172 69.4 C 423.116 69.4 420.588 70.138 417.743 72.035 Z M 359.694 76.67 L 381.08 76.67 C 379.921 69.613 376.128 66.241 370.44 66.241 C 365.592 66.241 360.96 69.086 359.694 76.67 Z M 371.599 110.168 C 355.587 110.168 342.733 102.267 342.733 81.409 C 342.733 61.92 355.166 53.494 369.492 53.494 C 386.767 53.494 394.458 65.607 394.458 84.675 L 359.588 84.675 C 360.749 94.049 366.543 96.79 374.234 96.79 C 381.671 96.79 387.489 94.955 391.991 91.926 L 389.732 105.128 C 385.436 108.447 380.278 110.168 371.599 110.168 Z M 309.624 96.159 C 313.415 96.159 316.26 95.525 319.209 93.314 L 319.209 69.717 C 316.577 68.135 313.945 67.399 310.151 67.399 C 302.04 67.399 297.405 72.876 297.405 82.04 C 297.405 90.996 302.146 96.159 309.624 96.159 Z M 322.474 105.112 C 318.156 108.378 313.207 110.379 306.147 110.379 C 291.294 110.379 280.55 101.215 280.55 82.357 C 280.55 63.606 292.876 53.494 308.675 53.494 C 312.362 53.494 315.945 54.021 319.209 55.284 L 319.209 32.257 L 335.855 32.257 L 335.855 109.113 L 325.319 109.113 L 322.474 105.112 Z M 210.026 76.984 L 210.026 36.778 L 227.302 36.778 L 227.302 76.67 C 227.302 90.996 233.727 93.945 242.576 93.945 C 252.164 93.945 257.113 89.731 257.113 76.67 L 257.113 36.778 L 274.495 36.778 L 274.495 76.984 C 274.495 100.687 264.173 110.589 241.735 110.589 C 220.876 110.589 210.026 102.057 210.026 76.984 Z" id="Fill-1" style="fill: rgb(166, 162, 214);" transform="matrix(-1, 0, 0, -1, 754.692993, 159.454994)"/>
        <path d="M 196.279 91.136 C 195.578 90.574 194.79 90.196 193.932 90.033 C 188.865 95.084 182.683 100.404 177.192 103.979 C 174.659 105.662 171.473 106.504 169.363 106.504 C 164.507 106.504 162.397 101.874 161.763 94.514 C 160.919 84.628 160.348 72.787 160.348 54.486 C 160.348 35.716 156.089 22.956 144.741 21.955 C 144.261 21.912 143.776 21.883 143.27 21.883 C 136.304 21.883 132.926 25.458 128.494 34.504 C 124.695 42.285 118.784 53.644 107.808 75.099 C 98.309 93.611 87.755 110.018 78.676 121.376 C 76.148 124.525 74.15 126.688 72.272 127.919 C 71.017 128.745 69.813 129.158 68.545 129.158 C 64.962 129.158 62.347 126.134 61.473 119.093 C 61.265 117.421 61.156 115.521 61.156 113.382 C 61.156 98.869 66.646 75.31 76.143 40.602 C 83.109 15.362 80.155 -1.884 64.954 -1.884 C 64.93 -1.884 64.907 -1.884 64.883 -1.884 C 64.851 -1.884 64.819 -1.884 64.784 -1.884 L 64.773 -1.882 C 61.332 -1.842 58.479 -0.595 55.729 1.568 C 53.023 3.699 50.314 8.302 47.786 14.49 C 44.935 21.462 27.604 56.226 0.019 74.135 C -0.306 80.944 3.549 87.75 11.36 88.488 C 18.47 89.162 23.518 86.165 30.018 81.799 C 29.53 83.97 29.08 86 28.67 87.857 C 28.185 90.049 27.772 91.94 27.442 93.467 C 26.946 95.739 26.632 97.202 26.538 97.607 C 25.635 101.749 24.991 105.683 24.573 109.418 C 20.683 144.185 36.797 161.34 55.668 161.34 C 58.822 161.34 61.947 160.965 65.05 160.176 C 85.842 154.904 105.859 131.054 129.551 76.152 C 129.192 82.124 129.154 87.702 129.413 92.878 C 130.974 124.344 143.419 133.785 161.004 133.785 C 174.302 133.785 186.756 126.845 193.088 118.22 C 197.733 112.119 199.633 105.388 199.633 100.129 C 199.633 96.048 198.338 92.79 196.279 91.136" id="Fill-4" style="fill: rgb(61, 64, 218);"/>
      </g>
    </g>
  </g>
</svg>